<svg xmlns="http://www.w3.org/2000/svg" viewBox="0 0 429.5 399.31"><defs><style>.cls-1{fill:#ed0f69;}</style></defs><title>Artboard 26</title><g id="Layer_3" data-name="Layer 3"><path class="cls-1" d="M254,25.2s.69-18.91-17.63-19.58C236.34,5.62,232.74,24.43,254,25.2Z"/><path class="cls-1" d="M254,32.05s-6.11,17.92-23.46,12C230.52,44.05,233.86,25.2,254,32.05Z"/><path class="cls-1" d="M282.3,34.55S286.1,16,268.15,12.33C268.15,12.33,261.49,30.29,282.3,34.55Z"/><path class="cls-1" d="M281.18,41.31s-9,16.66-25.12,8C256.06,49.28,262.47,31.23,281.18,41.31Z"/><path class="cls-1" d="M308.7,48.45s6.81-17.66-10.3-24.26C298.4,24.19,288.87,40.81,308.7,48.45Z"/><path class="cls-1" d="M306.47,54.93s-11.6,14.95-26.09,3.71C280.38,58.64,289.69,41.9,306.47,54.93Z"/><path class="cls-1" d="M332.44,66.52s9.63-16.3-6.15-25.63C326.29,40.89,314.15,55.7,332.44,66.52Z"/><path class="cls-1" d="M329.18,72.54s-13.92,12.83-26.35-.65C302.83,71.89,314.77,56.91,329.18,72.54Z"/><path class="cls-1" d="M352.87,88.25S365.06,73.77,351,62C351,62,336.61,74.57,352.87,88.25Z"/><path class="cls-1" d="M348.66,93.65s-15.84,10.36-25.88-5C322.78,88.67,337,75.86,348.66,93.65Z"/><path class="cls-1" d="M369.44,113.06s14.41-12.27,2.53-26.23C372,86.83,355.66,96.88,369.44,113.06Z"/><path class="cls-1" d="M364.39,117.69s-17.33,7.6-24.7-9.19C339.69,108.5,355.86,98.23,364.39,117.69Z"/><path class="cls-1" d="M381.68,140.26s16.24-9.72,6.83-25.45C388.51,114.81,370.77,122,381.68,140.26Z"/><path class="cls-1" d="M375.94,144s-18.35,4.63-22.84-13.14C353.1,130.86,370.74,123.39,375.94,144Z"/><path class="cls-1" d="M389.27,169.11s17.62-6.91,10.93-24C400.2,145.14,381.51,149.33,389.27,169.11Z"/><path class="cls-1" d="M383,171.85s-18.87,1.54-20.36-16.73C362.63,155.12,381.26,150.67,383,171.85Z"/><path class="cls-1" d="M392,198.82s18.52-3.91,14.74-21.84C406.73,177,387.6,178,392,198.82Z"/><path class="cls-1" d="M385.35,200.48s-18.87-1.59-17.33-19.86C368,180.62,387.13,179.31,385.35,200.48Z"/><path class="cls-1" d="M389.77,228.57s18.91-.8,18.14-19.11C407.91,209.46,388.87,207.34,389.77,228.57Z"/><path class="cls-1" d="M382.94,229.11s-18.34-4.68-13.8-22.44C369.14,206.67,388.2,208.52,382.94,229.11Z"/><path class="cls-1" d="M382.67,257.55s18.79,2.33,21.05-15.86C403.72,241.69,385.29,236.46,382.67,257.55Z"/><path class="cls-1" d="M375.85,257s-17.32-7.64-9.92-24.41C365.93,232.54,384.43,237.51,375.85,257Z"/><path class="cls-1" d="M370.89,285s18.14,5.4,23.37-12.16C394.26,272.79,377,264.59,370.89,285Z"/><path class="cls-1" d="M364.26,283.24s-15.82-10.4-5.75-25.72C358.51,257.52,375.93,265.48,364.26,283.24Z"/><path class="cls-1" d="M354.74,310s17,8.32,25.06-8.15C379.8,301.89,364.08,291,354.74,310Z"/><path class="cls-1" d="M348.48,307.25s-13.88-12.86-1.42-26.31C347.06,280.94,362.93,291.67,348.48,307.25Z"/><path class="cls-1" d="M334.67,332.11s15.4,11,26.07-3.89C360.74,328.22,347,314.83,334.67,332.11Z"/><path class="cls-1" d="M329,328.34s-11.57-15,2.94-26.19C331.9,302.15,345.78,315.35,329,328.34Z"/><path class="cls-1" d="M311.24,350.57s13.37,13.41,26.35.46C337.59,351,326.29,335.57,311.24,350.57Z"/><path class="cls-1" d="M306.23,345.91s-8.94-16.69,7.22-25.35C313.45,320.56,325,335.87,306.23,345.91Z"/><path class="cls-1" d="M285.08,364.91s11,15.43,25.91,4.81C311,369.72,302.4,352.6,285.08,364.91Z"/><path class="cls-1" d="M280.91,359.48s-6.06-17.93,11.3-23.8C292.21,335.68,301,352.68,280.91,359.48Z"/><path class="cls-1" d="M256.92,374.74s8.27,17,24.76,9C281.68,383.75,276,365.45,256.92,374.74Z"/><path class="cls-1" d="M253.7,368.7s-3-18.69,15.07-21.62C268.77,347.08,274.68,365.31,253.7,368.7Z"/><path class="cls-1" d="M227.51,379.78s5.35,18.16,22.94,13C250.45,392.76,247.9,373.78,227.51,379.78Z"/><path class="cls-1" d="M225.34,373.29s.1-18.93,18.43-18.83C243.77,354.46,246.59,373.41,225.34,373.29Z"/><path class="cls-1" d="M170.34,25.2S169.65,6.29,188,5.62C188,5.62,191.57,24.43,170.34,25.2Z"/><path class="cls-1" d="M170.33,32.05s6.11,17.92,23.46,12C193.79,44.05,190.45,25.2,170.33,32.05Z"/><path class="cls-1" d="M142,34.55S138.21,16,156.17,12.33C156.17,12.33,162.83,30.29,142,34.55Z"/><path class="cls-1" d="M143.14,41.31s9,16.66,25.11,8C168.25,49.28,161.84,31.23,143.14,41.31Z"/><path class="cls-1" d="M115.61,48.45s-6.81-17.66,10.3-24.26C125.91,24.19,135.44,40.81,115.61,48.45Z"/><path class="cls-1" d="M117.84,54.93s11.61,14.95,26.09,3.71C143.93,58.64,134.62,41.9,117.84,54.93Z"/><path class="cls-1" d="M91.87,66.52S82.24,50.22,98,40.89C98,40.89,110.17,55.7,91.87,66.52Z"/><path class="cls-1" d="M95.14,72.54s13.91,12.83,26.34-.65C121.48,71.89,109.54,56.91,95.14,72.54Z"/><path class="cls-1" d="M71.44,88.25S59.25,73.77,73.27,62C73.27,62,87.7,74.57,71.44,88.25Z"/><path class="cls-1" d="M75.65,93.65s15.84,10.36,25.88-5C101.53,88.67,87.28,75.86,75.65,93.65Z"/><path class="cls-1" d="M54.87,113.06s-14.41-12.27-2.53-26.23C52.34,86.83,68.65,96.88,54.87,113.06Z"/><path class="cls-1" d="M59.92,117.69s17.33,7.6,24.7-9.19C84.62,108.5,68.45,98.23,59.92,117.69Z"/><path class="cls-1" d="M42.63,140.26s-16.24-9.72-6.82-25.45C35.81,114.81,53.55,122,42.63,140.26Z"/><path class="cls-1" d="M48.37,144s18.35,4.63,22.84-13.14C71.21,130.86,53.58,123.39,48.37,144Z"/><path class="cls-1" d="M35,169.11s-17.62-6.91-10.93-24C24.11,145.14,42.8,149.33,35,169.11Z"/><path class="cls-1" d="M41.32,171.85s18.87,1.54,20.36-16.73C61.68,155.12,43.05,150.67,41.32,171.85Z"/><path class="cls-1" d="M32.32,198.82S13.8,194.91,17.58,177C17.58,177,36.71,178,32.32,198.82Z"/><path class="cls-1" d="M39,200.48s18.87-1.59,17.33-19.86C56.29,180.62,37.18,179.31,39,200.48Z"/><path class="cls-1" d="M34.54,228.57s-18.91-.8-18.14-19.11C16.4,209.46,35.44,207.34,34.54,228.57Z"/><path class="cls-1" d="M41.37,229.11s18.34-4.68,13.81-22.44C55.18,206.67,36.11,208.52,41.37,229.11Z"/><path class="cls-1" d="M41.64,257.55s-18.78,2.33-21-15.86C20.6,241.69,39,236.46,41.64,257.55Z"/><path class="cls-1" d="M48.46,257s17.32-7.64,9.92-24.41C58.38,232.54,39.88,237.51,48.46,257Z"/><path class="cls-1" d="M53.43,285s-18.15,5.4-23.38-12.16C30.05,272.79,47.36,264.59,53.43,285Z"/><path class="cls-1" d="M60.06,283.24s15.81-10.4,5.75-25.72C65.81,257.52,48.38,265.48,60.06,283.24Z"/><path class="cls-1" d="M69.57,310s-17,8.32-25.06-8.15C44.51,301.89,60.23,291,69.57,310Z"/><path class="cls-1" d="M75.83,307.25s13.88-12.86,1.42-26.31C77.25,280.94,61.39,291.67,75.83,307.25Z"/><path class="cls-1" d="M89.64,332.11s-15.4,11-26.07-3.89C63.57,328.22,77.27,314.83,89.64,332.11Z"/><path class="cls-1" d="M95.35,328.34s11.57-15-2.94-26.19C92.41,302.15,78.53,315.35,95.35,328.34Z"/><path class="cls-1" d="M113.07,350.57S99.7,364,86.72,351C86.72,351,98,335.57,113.07,350.57Z"/><path class="cls-1" d="M118.08,345.91s8.94-16.69-7.22-25.35C110.86,320.56,99.35,335.87,118.08,345.91Z"/><path class="cls-1" d="M139.23,364.91s-11,15.43-25.91,4.81C113.32,369.72,121.91,352.6,139.23,364.91Z"/><path class="cls-1" d="M143.4,359.48s6.06-17.93-11.3-23.8C132.1,335.68,123.27,352.68,143.4,359.48Z"/><path class="cls-1" d="M167.4,374.74s-8.28,17-24.77,9C142.63,383.75,148.28,365.45,167.4,374.74Z"/><path class="cls-1" d="M170.61,368.7s3-18.69-15.07-21.62C155.54,347.08,149.64,365.31,170.61,368.7Z"/><path class="cls-1" d="M196.8,379.78s-5.35,18.16-22.94,13C173.86,392.76,176.41,373.78,196.8,379.78Z"/><path class="cls-1" d="M199,373.29s-.1-18.93-18.43-18.83C180.54,354.46,177.72,373.41,199,373.29Z"/><path class="cls-1" d="M212.16,70.51A127.54,127.54,0,1,0,339.69,198.05,127.54,127.54,0,0,0,212.16,70.51ZM250,249.74,212.16,245l-37.84,4.73,2.36-14.19-39-27.2,14.19-5.91-9.46-24.83,24.83,5.91,3.55-15.37,18.92,17.74-5.91-35.48L198,156.33l14.19-30.75,14.19,30.75,14.18-5.92-5.91,35.48,18.92-17.74,3.55,15.37,24.83-5.91-9.46,24.83,14.19,5.91-39,27.2Z"/></g></svg>